<?xml version="1.0" encoding="UTF-8"?>
<svg id="Layer_2" data-name="Layer 2" xmlns="http://www.w3.org/2000/svg" viewBox="0 0 675 675">
  <defs>
    <style>
      .cls-1 {
        fill: #007a6f;
      }

      .cls-2 {
        fill: #fff;
      }
    </style>
  </defs>
  <g id="Layer_1-2" data-name="Layer 1">
    <circle class="cls-1" cx="337.5" cy="337.5" r="337.5"/>
    <g>
      <path class="cls-2" d="M359.88,502.61c-8.33-5.54-12.84-13.53-12.84-24.65V197.05c0-11.11,4.51-19.09,12.84-24.65,3.82-2.42,7.99-4.17,12.5-4.17h7.99v-4.51h-86.11v4.51h7.99c6.94,0,12.85,2.78,18.06,8.34,4.86,5.56,7.29,12.85,7.29,21.18v232.87l-123.96-238.15c1.19-8.53,4.79-15.4,11.8-20.07,3.82-2.42,7.99-4.17,12.5-4.17h7.99v-4.51h-86.11v4.51h7.99c6.95,0,12.85,2.78,18.06,8.34,3.12,3.48,5.21,7.99,6.25,12.85.7,2.42,1.04,5.54,1.04,8.32v279.53c0,8.32-2.43,15.28-7.29,20.82-5.21,5.56-11.11,8.34-18.06,8.34h-7.99v4.85h86.11v-4.85h-7.99c-4.51,0-8.68-1.39-12.5-3.83-8.33-5.54-12.85-13.53-12.85-24.65v-245.37l123.14,236.59c.78,1.49,1.37,2.81,1.86,4.19v4.59c0,8-2.43,14.6-7.29,20.14-5.21,5.56-11.11,8.34-18.06,8.34h-7.99v4.85h86.11v-4.85h-7.99c-4.51,0-8.68-1.39-12.5-3.83Z"/>
      <path class="cls-2" d="M523.39,506.08c-12.97,0-24.27-4.51-33.79-13.42-3.93-3.69-7.57-8.13-10.89-13.32l-28.73-45.3-68.63-108.18-9.95-15.65h.01s7.26-8.08,7.26-8.08l2.74-3.02.27-.32,10.48-12.17,86.47-99.67c11.46-12.85,26.38-19.45,44.79-19.45h1.73v-3.81h-87.84v3.81h4.17c5.89,0,9.72,2.08,12.15,6.26.7,1.73,1.05,3.47,1.05,5.89,0,2.08-1.05,4.51-3.13,7.29l-87.84,109.82-10.78,13.47v.33h.01s.01.02.01.02l98.63,168.74c2.07,3.84,3.11,7.29,3.11,10.08,0,3.48-.26,5.56-1.04,7.98-2.58,5.92-6.19,8.68-12.13,8.68h-4.13v5.2h87.8v-5.2h-1.8Z"/>
    </g>
  </g>
</svg>