<?xml version="1.0" encoding="UTF-8"?>
<svg id="Layer_1" data-name="Layer 1" xmlns="http://www.w3.org/2000/svg" viewBox="0 0 1080 1080">
  <defs>
    <style>
      .cls-1 {
        fill: #096b68;
      }
    </style>
  </defs>
  <path class="cls-1" d="M595.11,946.56c-20.52-13.65-31.63-33.32-31.63-60.7V194.15c0-27.35,11.11-47.01,31.63-60.7,9.41-5.97,19.67-10.27,30.79-10.27h19.66v-11.11h-212.05v11.11h19.66c17.1,0,31.64,6.85,44.46,20.54,11.96,13.69,17.95,31.65,17.95,52.14v573.43L210.36,182.87c2.93-21,11.78-37.91,29.06-49.43,9.4-5.97,19.66-10.27,30.78-10.27h19.66v-11.11H77.82v11.11h19.66c17.11,0,31.64,6.85,44.46,20.54,7.69,8.56,12.83,19.66,15.4,31.65,1.71,5.97,2.57,13.65,2.57,20.5v688.33c0,20.5-5.99,37.62-17.96,51.27-12.83,13.69-27.36,20.54-44.46,20.54h-19.66v11.94h212.05v-11.94h-19.66c-11.12,0-21.38-3.42-30.78-9.44-20.52-13.65-31.64-33.32-31.64-60.7V281.65l303.23,582.57c1.92,3.67,3.37,6.93,4.58,10.31v11.31c0,19.71-5.99,35.95-17.95,49.6-12.83,13.69-27.37,20.54-44.46,20.54h-19.66v11.94h212.05v-11.94h-19.66c-11.12,0-21.38-3.42-30.79-9.44Z"/>
  <path class="cls-1" d="M997.75,955.12c-31.94,0-59.76-11.11-83.2-33.04-9.69-9.08-18.64-20.01-26.81-32.79l-70.75-111.53-168.99-266.37-24.51-38.53.03-.03,17.89-19.86,6.74-7.44.67-.79,25.81-29.97,212.93-245.42c28.21-31.64,64.95-47.89,110.29-47.89h4.25v-9.38h-216.3v9.38h10.26c14.52,0,23.93,5.13,29.91,15.43,1.73,4.25,2.58,8.53,2.58,14.52,0,5.13-2.58,11.11-7.71,17.95l-216.3,270.41-26.54,33.16v.82l.03.03.03.03,242.87,415.5c5.1,9.44,7.65,17.95,7.65,24.81,0,8.56-.64,13.69-2.55,19.65-6.35,14.58-15.24,21.38-29.88,21.38h-10.17v12.82h216.21v-12.82h-4.43Z"/>
</svg>